<?xml version="1.0" standalone="no"?>
<!DOCTYPE svg PUBLIC "-//W3C//DTD SVG 20010904//EN"
 "http://www.w3.org/TR/2001/REC-SVG-20010904/DTD/svg10.dtd">
<svg version="1.0" xmlns="http://www.w3.org/2000/svg"
 width="521.000000pt" height="200.000000pt" viewBox="0 0 521.000000 200.000000"
 preserveAspectRatio="xMidYMid meet">

<g transform="translate(0.000000,200.000000) scale(0.100000,-0.100000)"
fill="#000000" stroke="none">
<path d="M3080 1580 l0 -330 45 0 45 0 0 330 0 330 -45 0 -45 0 0 -330z"/>
<path d="M3830 1580 l0 -330 45 0 45 0 0 330 0 330 -45 0 -45 0 0 -330z"/>
<path d="M2960 1580 l0 -290 40 0 40 0 0 290 0 290 -40 0 -40 0 0 -290z"/>
<path d="M3960 1580 l0 -290 40 0 40 0 0 290 0 290 -40 0 -40 0 0 -290z"/>
<path d="M2830 1580 l0 -250 45 0 45 0 0 250 0 250 -45 0 -45 0 0 -250z"/>
<path d="M4080 1580 l0 -250 45 0 45 0 0 250 0 250 -45 0 -45 0 0 -250z"/>
<path d="M1062 1798 c-32 -23 -122 -133 -122 -149 0 -18 55 -8 99 18 42 24 43
27 23 34 -40 15 -26 66 28 103 13 9 20 16 14 16 -5 0 -24 -10 -42 -22z"/>
<path d="M874 1779 c-13 -15 -20 -42 -24 -89 l-5 -67 23 15 c25 16 31 2 7 -18
-10 -8 -13 -21 -9 -33 5 -16 3 -19 -14 -15 -13 4 -33 -3 -53 -18 -25 -18 -35
-21 -41 -12 -6 10 -10 10 -20 0 -18 -18 3 -48 33 -44 13 1 43 16 67 32 23 17
46 30 51 30 5 0 14 7 21 15 10 13 9 15 -10 15 -28 0 -21 24 8 28 14 2 22 -2
22 -11 0 -20 22 -27 81 -27 27 0 65 -6 83 -14 32 -13 34 -13 44 9 12 26 48 36
73 21 9 -5 25 -6 35 -2 15 6 10 11 -28 23 -44 15 -53 14 -139 -6 -50 -12 -94
-19 -97 -16 -9 8 -1 11 73 27 57 12 69 18 67 32 -4 21 21 51 63 77 17 11 25
19 18 19 -7 0 -54 -27 -104 -60 -80 -53 -97 -60 -140 -60 -53 0 -57 3 -34 26
8 9 15 25 15 38 0 12 5 27 12 34 24 24 -7 11 -33 -14 -27 -26 -27 -26 -38 -5
-9 16 -8 29 3 56 17 41 16 43 -10 14z"/>
<path d="M1158 1643 c7 -3 16 -2 19 1 4 3 -2 6 -13 5 -11 0 -14 -3 -6 -6z"/>
<path d="M3210 1580 l0 -40 290 0 290 0 0 40 0 40 -290 0 -290 0 0 -40z"/>
<path d="M811 1601 c-14 -4 -27 -13 -29 -20 -3 -9 1 -11 9 -7 8 3 22 9 32 12
9 4 17 10 17 15 0 5 -1 9 -2 8 -2 -1 -14 -4 -27 -8z"/>
<path d="M1264 1584 c-18 -15 -18 -15 11 -9 37 8 57 25 29 25 -11 0 -29 -7
-40 -16z"/>
<path d="M1150 1563 c0 -10 16 -27 38 -38 95 -51 21 -157 -133 -189 -64 -14
-145 -41 -145 -50 0 -2 28 3 62 11 37 8 80 12 105 8 45 -7 105 17 151 59 27
24 62 87 62 111 0 35 -30 73 -70 89 -52 21 -70 20 -70 -1z"/>
<path d="M901 1544 c-26 -32 -29 -63 -6 -44 25 21 30 2 7 -23 -40 -42 -21 -52
22 -12 25 23 33 56 20 89 -9 23 -19 20 -43 -10z"/>
<path d="M966 1543 c10 -40 13 -44 28 -30 8 6 12 15 9 20 -11 18 16 5 38 -19
13 -14 42 -39 64 -56 l40 -30 -35 32 c-34 30 -34 32 -16 46 26 19 35 18 74 -6
19 -12 31 -16 27 -10 -12 20 -101 58 -160 69 -78 15 -76 15 -69 -16z"/>
<path d="M1285 1560 c-15 -6 -8 -9 28 -9 30 -1 46 3 42 9 -7 12 -42 12 -70 0z"/>
<path d="M1310 1531 l-25 -7 25 -8 c22 -6 23 -8 7 -15 -16 -6 -16 -9 -5 -18 7
-5 25 -13 41 -17 26 -6 27 -5 21 21 -12 59 -12 59 -64 44z"/>
<path d="M811 1496 l-23 -13 22 -6 c12 -3 19 -3 16 0 -3 3 2 12 12 19 22 17 4
17 -27 0z"/>
<path d="M489 1479 l-24 -20 23 11 c13 7 35 9 48 6 20 -5 24 -12 24 -47 0 -76
64 -159 154 -200 51 -23 75 -23 105 0 l23 18 -57 11 c-73 15 -140 54 -160 92
-8 16 -18 50 -22 76 -3 25 -12 52 -20 60 -21 20 -67 17 -94 -7z"/>
<path d="M993 1493 c-14 -5 -18 -43 -5 -43 16 1 44 29 37 39 -7 12 -13 12 -32
4z"/>
<path d="M1552 1477 c-6 -7 -16 -35 -22 -62 -14 -63 -30 -88 -81 -125 -29 -21
-58 -31 -100 -36 -32 -4 -59 -10 -59 -14 0 -20 49 -39 77 -31 72 21 150 78
178 131 7 14 16 51 20 83 4 31 9 57 10 57 2 0 24 -9 50 -20 64 -27 79 -25 30
5 -44 27 -87 32 -103 12z"/>
<path d="M755 1470 c-3 -5 -2 -10 4 -10 5 0 13 5 16 10 3 6 2 10 -4 10 -5 0
-13 -4 -16 -10z"/>
<path d="M961 1464 c0 -11 3 -14 6 -6 3 7 2 16 -1 19 -3 4 -6 -2 -5 -13z"/>
<path d="M1300 1446 c0 -29 26 -76 42 -76 6 0 8 12 5 26 -3 18 -1 24 9 20 9
-3 14 2 14 13 0 10 -8 21 -17 24 -10 2 -26 8 -35 12 -15 6 -18 2 -18 -19z"/>
<path d="M493 1418 c-77 -108 -114 -218 -112 -331 l2 -62 7 80 c10 106 40 196
91 273 23 35 43 61 46 59 2 -3 -4 -36 -13 -73 -39 -160 -6 -355 78 -467 11
-15 13 -11 16 35 4 63 5 65 42 73 26 6 29 10 26 39 -1 18 -16 52 -34 77 -35
50 -92 210 -92 260 0 41 -10 79 -19 79 -4 0 -21 -19 -38 -42z m37 -124 c-7
-40 -10 -91 -6 -114 4 -24 2 -40 -4 -40 -14 0 -13 136 2 202 16 77 23 39 8
-48z m63 -106 c25 -54 42 -98 38 -98 -8 0 -74 138 -86 180 -12 40 -1 22 48
-82z m-42 -145 c12 -38 28 -81 36 -96 8 -16 12 -31 9 -35 -8 -7 -63 116 -71
161 -11 58 1 43 26 -30z"/>
<path d="M1600 1446 c0 -3 9 -21 21 -40 12 -20 16 -36 10 -36 -6 0 -17 12 -24
26 l-14 27 -7 -28 c-4 -16 -3 -32 3 -38 6 -6 11 -31 10 -56 l-1 -46 -13 45
c-7 25 -13 37 -14 28 -1 -10 -5 -18 -10 -18 -5 0 -8 -11 -8 -24 0 -14 -19 -62
-41 -108 -22 -46 -39 -84 -38 -86 4 -3 58 96 83 153 16 35 22 43 23 27 0 -28
-37 -102 -95 -189 -49 -72 -53 -83 -31 -83 29 0 48 -32 42 -69 l-5 -36 19 25
c28 37 60 131 81 239 l19 96 -4 -75 c-3 -41 -14 -100 -24 -130 -34 -94 -35
-97 -18 -70 35 55 56 151 57 254 l2 101 9 -75 c11 -93 -3 -179 -44 -270 l-29
-65 33 30 c71 65 77 69 92 56 8 -7 20 -10 25 -6 7 4 9 -5 6 -25 -14 -88 -15
-96 -3 -72 6 12 14 22 18 22 4 0 18 24 30 53 12 28 29 60 38 70 19 21 85 23
106 2 11 -12 16 -12 23 -3 5 9 10 3 15 -17 5 -22 6 -18 2 13 -6 58 -41 124
-112 213 -101 126 -143 163 -209 183 -13 4 -23 5 -23 2z m66 -43 c-3 -3 10
-36 29 -74 19 -37 40 -89 46 -116 13 -58 13 -197 0 -238 -6 -22 -9 8 -8 106
l2 136 -50 99 c-28 54 -52 103 -54 107 -2 5 7 4 19 -3 12 -6 19 -14 16 -17z
m9 -92 c13 -27 27 -69 31 -93 4 -24 11 -51 15 -60 5 -9 5 -19 1 -22 -5 -3 -15
20 -21 52 -7 31 -23 83 -36 115 -12 31 -21 57 -19 57 2 0 15 -22 29 -49z m149
-51 c42 -56 110 -179 103 -186 -3 -4 -17 16 -31 43 -35 67 -75 125 -122 175
-56 60 -64 77 -21 43 20 -16 52 -50 71 -75z m-107 -207 c-2 -16 -4 -5 -4 22 0
28 2 40 4 28 2 -13 2 -35 0 -50z"/>
<path d="M435 1418 c-74 -53 -225 -222 -225 -253 0 -4 16 14 36 41 50 66 107
126 177 185 59 50 66 66 12 27z"/>
<path d="M830 1425 c0 -8 2 -15 4 -15 2 0 6 7 10 15 3 8 1 15 -4 15 -6 0 -10
-7 -10 -15z"/>
<path d="M864 1393 c-3 -10 -19 -28 -37 -40 -17 -13 -27 -23 -20 -23 15 0 73
55 73 69 0 17 -11 13 -16 -6z"/>
<path d="M387 1340 c-72 -67 -159 -177 -183 -235 -15 -36 -14 -37 3 -30 71 29
98 18 133 -56 16 -35 31 -55 34 -47 3 7 4 2 2 -11 -3 -15 3 -39 15 -58 26 -42
32 -42 14 1 -16 37 -10 99 11 117 20 17 48 3 95 -48 23 -25 40 -40 36 -32 -56
136 -59 147 -64 239 -3 52 0 115 5 140 6 24 9 46 7 48 -2 2 -18 -24 -35 -58
-35 -70 -60 -170 -60 -246 0 -48 -9 -64 -36 -64 -2 0 -4 30 -4 68 0 95 23 192
63 267 19 36 34 65 32 65 -1 0 -32 -27 -68 -60z"/>
<path d="M1280 1384 c0 -9 8 -27 19 -40 18 -23 19 -23 24 -3 3 13 -2 28 -14
40 -23 23 -29 24 -29 3z"/>
<path d="M710 1363 c0 -17 40 -43 65 -42 17 0 17 2 -5 11 -14 6 -29 12 -33 12
-4 1 -12 8 -17 16 -6 9 -10 10 -10 3z"/>
<path d="M1252 1338 c4 -26 3 -28 -7 -15 -18 25 -25 21 -25 -12 0 -40 10 -43
44 -16 28 22 29 26 16 49 -19 36 -33 32 -28 -6z"/>
<path d="M1190 1310 c0 -5 -8 -10 -17 -11 -15 0 -15 -2 2 -9 30 -13 35 -12 35
10 0 11 -4 20 -10 20 -5 0 -10 -4 -10 -10z"/>
<path d="M585 1289 c19 -62 48 -128 74 -173 l29 -49 20 40 c11 21 28 45 36 52
25 21 20 28 -37 54 -30 13 -71 41 -92 62 -32 33 -36 35 -30 14z"/>
<path d="M1498 1255 c-20 -18 -59 -42 -87 -52 -28 -10 -51 -20 -51 -23 0 -3
15 -32 34 -64 l33 -59 41 69 c37 62 76 153 70 160 -2 1 -19 -13 -40 -31z"/>
<path d="M978 1260 c-100 -54 -112 -168 -25 -234 27 -21 52 -29 105 -34 85
-10 142 -43 172 -102 19 -38 28 -120 12 -120 -13 0 -34 -64 -22 -68 14 -5 12
-29 -2 -36 -10 -5 -10 -7 0 -12 6 -3 12 -15 12 -26 0 -17 -3 -18 -15 -8 -8 7
-15 18 -15 25 0 9 -9 10 -40 2 -22 -6 -40 -15 -40 -20 0 -5 -7 -3 -16 4 -14
11 -18 10 -30 -6 -18 -24 -18 -49 0 -42 11 4 11 -1 0 -31 -7 -21 -13 -67 -14
-104 0 -51 -3 -68 -14 -68 -7 0 -16 -9 -19 -20 -6 -25 8 -26 22 -3 6 10 11 13
11 6 0 -6 3 -18 6 -27 5 -13 -1 -16 -28 -16 l-35 0 -2 141 c-1 97 2 145 10
155 17 21 2 31 -18 12 -14 -15 -18 -14 -42 8 -14 13 -41 29 -59 35 -30 10 -41
8 -93 -18 -33 -17 -62 -26 -65 -21 -3 4 -20 8 -38 8 l-33 0 -8 -87 c-8 -101
-7 -275 3 -284 4 -4 22 -10 40 -14 25 -5 32 -3 32 9 0 21 0 21 75 -14 65 -30
84 -31 118 -2 15 14 17 13 17 -5 0 -15 9 -22 31 -27 49 -9 50 -8 43 29 l-6 35
38 -1 c31 0 44 -6 62 -29 l22 -28 -45 -59 c-91 -116 -105 -136 -105 -151 0 -9
14 6 31 33 17 27 56 73 85 102 30 28 54 57 54 63 0 15 42 8 48 -8 2 -8 -2 -10
-13 -6 -13 5 -16 2 -14 -11 8 -41 33 -21 43 35 1 3 9 16 19 30 l17 24 0 -22
c0 -20 4 -23 32 -20 l31 3 -2 266 c-2 241 -1 267 15 280 9 8 30 41 46 74 35
74 38 166 9 232 -63 138 -289 235 -403 173z m114 -87 c37 -33 17 -83 -33 -83
-54 0 -78 55 -37 84 29 20 47 20 70 -1z m-286 -588 c-20 -30 -20 -49 -1 -65
12 -10 15 -10 15 0 0 7 7 10 15 6 9 -3 24 3 35 14 27 27 48 25 56 -6 8 -30 -2
-39 -58 -54 -37 -11 -60 -27 -76 -57 -7 -11 -17 -14 -36 -9 -32 8 -35 25 -3
19 34 -7 35 39 2 65 -34 27 -31 45 12 81 45 37 61 40 39 6z m408 -47 c19 -26
22 -177 6 -209 -14 -25 -36 -24 -43 1 -3 12 -11 18 -19 15 -22 -9 -25 158 -3
191 19 30 39 31 59 2z m-448 -85 c-8 -8 -36 10 -36 25 0 13 3 12 20 -3 11 -10
18 -20 16 -22z m144 -108 c-12 -25 -26 -42 -32 -39 -6 4 -6 10 1 17 6 6 11 17
11 25 0 12 -3 12 -15 2 -13 -11 -15 -8 -15 14 0 21 7 30 33 41 42 18 47 2 17
-60z m-130 45 c0 -5 -11 -10 -25 -10 -14 0 -25 5 -25 10 0 6 11 10 25 10 14 0
25 -4 25 -10z m-16 -34 c7 3 13 -6 14 -21 2 -26 2 -26 -23 -8 -13 10 -25 25
-25 33 0 10 3 11 11 3 6 -6 17 -9 23 -7z"/>
<path d="M754 539 c-3 -6 5 -23 19 -37 l26 -26 -11 37 c-12 38 -22 46 -34 26z"/>
<path d="M2774 1119 c3 -17 6 -94 6 -170 l0 -139 45 0 45 0 0 65 0 65 65 0 65
0 0 40 0 39 -62 3 c-57 3 -63 5 -66 26 -3 21 0 22 72 22 74 0 76 1 76 24 0 55
-3 56 -132 56 l-120 0 6 -31z"/>
<path d="M3067 1132 c-22 -24 -21 -35 3 -57 30 -27 70 -13 70 25 0 45 -44 64
-73 32z"/>
<path d="M175 1097 c-7 -18 -16 -46 -20 -63 l-6 -29 14 30 c19 40 36 95 31 95
-3 0 -11 -15 -19 -33z"/>
<path d="M3190 1081 c0 -28 -4 -51 -10 -51 -16 0 -12 -67 5 -73 11 -5 13 -17
8 -55 -5 -42 -2 -53 16 -71 23 -23 52 -26 100 -10 25 9 31 16 31 39 0 25 -4
29 -32 32 -29 3 -33 7 -36 36 -3 30 -1 32 26 32 28 0 30 3 34 40 3 39 3 40
-29 40 -32 0 -33 1 -33 40 0 36 -3 40 -24 40 -13 0 -31 3 -40 6 -13 5 -16 -2
-16 -45z"/>
<path d="M1445 1063 l-17 -28 23 22 c12 12 20 25 17 28 -3 3 -13 -7 -23 -22z"/>
<path d="M3401 1043 c-32 -4 -33 -5 -27 -41 3 -20 6 -72 6 -114 l0 -78 40 0
39 0 3 78 3 77 30 0 30 0 3 -77 3 -78 39 0 40 0 0 96 c0 52 -4 104 -10 114
-14 27 -61 34 -104 16 -32 -13 -38 -14 -43 -1 -3 8 -8 14 -12 13 -3 0 -21 -3
-40 -5z"/>
<path d="M3725 1040 c-44 -18 -70 -59 -70 -112 0 -43 4 -53 32 -78 39 -35 86
-45 141 -30 44 11 49 19 32 51 -9 15 -15 17 -30 9 -27 -15 -76 -12 -89 4 -12
15 7 20 104 28 24 3 31 8 33 30 8 70 -81 128 -153 98z m71 -61 c8 -14 -14 -29
-43 -29 -22 0 -31 19 -16 33 10 11 51 8 59 -4z"/>
<path d="M3965 1035 c-33 -17 -55 -42 -55 -61 0 -7 12 -26 26 -43 30 -37 26
-58 -12 -63 l-28 -3 25 -29 25 -29 47 21 c26 12 47 25 47 31 0 5 2 16 6 24 3
8 -7 28 -21 46 -29 34 -27 61 5 61 24 0 25 4 4 35 -19 29 -28 30 -69 10z"/>
<path d="M4145 1035 c-33 -17 -55 -42 -55 -61 0 -7 12 -26 26 -43 30 -37 26
-58 -12 -63 l-28 -3 25 -29 25 -29 47 21 c26 12 47 25 47 31 0 5 2 16 6 24 3
8 -7 28 -21 46 -29 34 -27 61 5 61 24 0 25 4 4 35 -19 29 -28 30 -69 10z"/>
<path d="M3054 1024 c3 -9 6 -60 6 -115 l0 -99 40 0 40 0 0 115 0 115 -46 0
c-38 0 -45 -3 -40 -16z"/>
<path d="M1491 867 c-29 -35 -30 -38 -7 -17 24 22 52 60 44 60 -2 0 -18 -19
-37 -43z"/>
<path d="M610 866 c0 -2 8 -10 18 -17 15 -13 16 -12 3 4 -13 16 -21 21 -21 13z"/>
<path d="M1017 842 c-32 -35 -14 -72 33 -72 32 0 50 17 50 47 0 40 -55 56 -83
25z"/>
<path d="M280 753 c0 -28 -3 -111 -6 -185 l-7 -136 27 -17 c15 -10 29 -15 33
-12 3 4 9 66 12 139 l6 133 25 -154 c24 -149 26 -155 55 -172 22 -14 31 -15
36 -6 4 6 21 75 38 152 18 77 33 141 34 142 1 1 1 -74 -1 -166 l-4 -168 24 -6
c13 -4 26 -7 30 -7 12 0 17 57 23 278 l5 212 -53 0 -54 0 -33 -150 c-18 -83
-35 -149 -36 -147 -2 1 -13 67 -25 145 -13 78 -25 146 -28 151 -3 5 -27 12
-53 16 l-48 7 0 -49z"/>
<path d="M662 728 c3 -42 4 -43 41 -46 l37 -3 0 45 0 46 -41 0 -40 0 3 -42z"/>
<path d="M1693 685 c-59 -25 -84 -124 -43 -165 15 -15 33 -20 75 -20 48 0 55
-2 55 -20 0 -11 -12 -26 -29 -35 -27 -13 -31 -13 -46 2 -15 15 -19 15 -51 0
-34 -17 -34 -17 -19 -47 20 -40 53 -46 108 -22 56 25 98 79 104 135 6 54 -6
65 -80 70 -63 5 -72 9 -64 30 8 21 45 27 62 11 13 -13 18 -13 45 1 35 18 37
28 10 55 -24 24 -79 26 -127 5z"/>
<path d="M1421 634 c-78 -65 -80 -284 -3 -344 51 -40 134 -2 168 77 18 43 18
43 -12 43 -16 0 -36 -11 -52 -30 -15 -16 -32 -30 -39 -30 -17 0 -43 40 -43 66
0 18 11 23 80 38 91 19 92 21 65 114 -27 89 -101 119 -164 66z m81 -61 c24
-21 24 -63 1 -63 -10 0 -28 -3 -40 -6 -19 -5 -23 -2 -23 18 0 23 25 68 37 68
4 0 15 -7 25 -17z"/>
<path d="M1031 614 c-26 -33 -27 -48 -2 -34 19 10 37 47 28 56 -3 3 -14 -7
-26 -22z"/>
<path d="M2546 550 c-65 -20 -106 -83 -106 -165 0 -60 15 -98 52 -131 54 -50
154 -54 206 -9 l27 24 -19 35 -19 35 -25 -19 c-59 -47 -132 -10 -132 66 0 74
75 110 134 63 l26 -20 17 35 c16 34 16 37 -2 56 -31 34 -100 47 -159 30z"/>
<path d="M2803 434 c-33 -16 -63 -66 -63 -104 0 -39 30 -88 65 -104 41 -20 66
-20 109 -2 46 19 66 52 66 106 0 54 -20 87 -66 106 -43 18 -71 17 -111 -2z
m101 -86 c14 -23 -3 -52 -33 -56 -42 -6 -67 38 -39 66 17 17 58 11 72 -10z"/>
<path d="M3041 443 c-32 -4 -33 -5 -27 -41 3 -20 6 -72 6 -114 l0 -78 40 0 39
0 3 78 c3 73 4 77 27 80 33 5 41 -12 41 -90 l0 -68 40 0 39 0 3 78 c3 73 4 77
27 80 33 5 41 -12 41 -90 l0 -68 40 0 40 0 0 98 c0 53 -4 102 -8 108 -24 36
-88 40 -124 7 -15 -14 -19 -14 -33 1 -28 27 -62 30 -100 7 -44 -26 -45 -26
-45 -1 0 11 -3 19 -7 18 -5 0 -23 -3 -42 -5z"/>
<path d="M3477 443 c-21 -3 -27 -9 -23 -20 3 -8 6 -77 6 -154 l0 -139 40 0 40
0 0 51 c0 43 3 50 16 45 61 -23 119 -7 145 41 19 35 16 103 -6 136 -25 38 -82
54 -122 33 -27 -13 -32 -14 -37 -1 -3 8 -11 14 -18 14 -7 -1 -26 -4 -41 -6z
m143 -88 c7 -8 10 -25 6 -40 -11 -43 -86 -30 -86 15 0 37 55 55 80 25z"/>
<path d="M3805 436 c-38 -17 -60 -58 -59 -110 1 -56 27 -93 75 -107 32 -10 42
-9 63 5 31 20 36 20 36 1 0 -11 11 -15 39 -15 l38 0 -1 115 c0 70 -5 115 -11
115 -5 0 -20 3 -32 6 -17 5 -23 2 -23 -10 0 -20 -9 -20 -34 -1 -24 18 -51 18
-91 1z m109 -88 c15 -25 -4 -52 -38 -56 -47 -6 -74 36 -44 66 18 18 69 11 82
-10z"/>
<path d="M4071 443 c-32 -4 -33 -5 -27 -41 3 -20 6 -72 6 -114 l0 -78 40 0 39
0 3 78 3 77 30 0 30 0 3 -77 3 -78 39 0 40 0 0 96 c0 52 -4 104 -10 114 -14
27 -61 34 -104 16 -32 -13 -38 -14 -43 -1 -3 8 -8 14 -12 13 -3 0 -21 -3 -40
-5z"/>
<path d="M4324 405 c-8 -47 1 -78 41 -138 37 -55 34 -77 -11 -77 -26 0 -30
-11 -14 -41 8 -14 21 -19 50 -19 33 0 43 6 73 43 19 23 51 67 71 98 33 50 37
62 34 110 l-3 54 -42 3 -43 3 0 -53 c-1 -49 -16 -88 -35 -88 -19 0 -34 39 -35
88 l0 52 -40 0 c-37 0 -39 -2 -46 -35z"/>
<path d="M1138 142 c-22 -38 -12 -59 13 -28 20 26 24 42 11 50 -5 3 -15 -7
-24 -22z"/>
<path d="M1100 89 c0 -11 4 -18 10 -14 5 3 7 12 3 20 -7 21 -13 19 -13 -6z"/>
<path d="M1070 68 c0 -12 -3 -18 -7 -15 -9 10 -33 -13 -33 -31 0 -11 8 -8 30
13 30 28 39 55 20 55 -5 0 -10 -10 -10 -22z"/>
</g>
</svg>
